<svg width="30" height="34" viewBox="0 0 30 34" fill="none" xmlns="http://www.w3.org/2000/svg">
<path d="M11.605 29.0466C12.4382 28.8703 17.5151 28.8703 18.3483 29.0466C19.0606 29.2111 19.8308 29.5955 19.8308 30.4348C19.7894 31.2338 19.3207 31.9422 18.673 32.392C17.8332 33.0467 16.8476 33.4613 15.8173 33.6107C15.2475 33.6845 14.6876 33.6862 14.1377 33.6107C13.1057 33.4613 12.1201 33.0467 11.282 32.3903C10.6326 31.9422 10.1639 31.2338 10.1225 30.4348C10.1225 29.5955 10.8927 29.2111 11.605 29.0466ZM15.075 0.333374C18.542 0.333374 22.0834 1.97841 24.1871 4.70782C25.552 6.46531 26.1781 8.22113 26.1781 10.9505V11.6606C26.1781 13.7538 26.7314 14.9876 27.9489 16.4094C28.8715 17.4568 29.1663 18.8014 29.1663 20.2601C29.1663 21.7171 28.6876 23.1003 27.7286 24.2233C26.473 25.5695 24.7022 26.4289 22.8951 26.5783C20.2763 26.8016 17.6558 26.9896 15.0005 26.9896C12.3436 26.9896 9.72476 26.8771 7.10593 26.5783C5.2971 26.4289 3.52637 25.5695 2.27245 24.2233C1.31337 23.1003 0.833008 21.7171 0.833008 20.2601C0.833008 18.8014 1.12951 17.4568 2.05049 16.4094C3.30607 14.9876 3.82287 13.7538 3.82287 11.6606V10.9505C3.82287 8.14727 4.52189 6.31424 5.96133 4.51981C8.10145 1.90287 11.5319 0.333374 14.926 0.333374H15.075Z" fill="#EAF0F2"/>
</svg>
