<svg width="31" height="31" viewBox="0 0 31 31" fill="none" xmlns="http://www.w3.org/2000/svg">
<path d="M15.5295 0.916504C23.8128 0.916504 30.0837 7.70794 30.0837 15.4779C30.0837 24.4894 22.7337 30.0832 15.5003 30.0832C13.1087 30.0832 10.4545 29.4405 8.32533 28.1845C7.58158 27.7317 6.95449 27.3958 6.15241 27.6587L3.20658 28.535C2.46283 28.7687 1.79199 28.1845 2.01074 27.3958L2.98783 24.1242C3.14824 23.6715 3.11908 23.1895 2.88574 22.8098C1.63158 20.5021 0.916992 17.9754 0.916992 15.5217C0.916992 7.83939 7.05658 0.916504 15.5295 0.916504ZM22.1941 13.6669C21.1587 13.6669 20.3274 14.4994 20.3274 15.5364C20.3274 16.5587 21.1587 17.4058 22.1941 17.4058C23.2295 17.4058 24.0607 16.5587 24.0607 15.5364C24.0607 14.4994 23.2295 13.6669 22.1941 13.6669ZM15.4712 13.6669C14.4503 13.6523 13.6045 14.4994 13.6045 15.5217C13.6045 16.5587 14.4357 17.3912 15.4712 17.4058C16.5066 17.4058 17.3378 16.5587 17.3378 15.5364C17.3378 14.4994 16.5066 13.6669 15.4712 13.6669ZM8.74824 13.6669C7.71283 13.6669 6.88158 14.4994 6.88158 15.5364C6.88158 16.5587 7.72741 17.4058 8.74824 17.4058C9.78366 17.3912 10.6149 16.5587 10.6149 15.5364C10.6149 14.4994 9.78366 13.6669 8.74824 13.6669Z" fill="#22AA99"/>
</svg>
