<svg width="42" height="30" viewBox="0 0 42 30" fill="none" xmlns="http://www.w3.org/2000/svg">
<path d="M20.9062 19.656C27.1967 19.656 32.568 20.6533 32.568 24.644C32.568 28.6331 27.2312 29.6667 20.9062 29.6667C14.6157 29.6667 9.2445 28.6694 9.2445 24.6803C9.2445 20.6896 14.5813 19.656 20.9062 19.656ZM30.964 17.253C33.3689 17.2084 35.9543 17.5386 36.9097 17.7731C38.9338 18.171 40.2651 18.9833 40.8167 20.1639C41.2829 21.1331 41.2829 22.2575 40.8167 23.2251C39.9729 25.0561 37.2528 25.6439 36.1957 25.7958C35.9773 25.8289 35.8017 25.639 35.8247 25.4194C36.3647 20.3455 32.0687 17.9398 30.9574 17.3867C30.9098 17.362 30.9 17.324 30.9049 17.3009C30.9082 17.2844 30.9279 17.2579 30.964 17.253ZM10.5837 17.2496L11.0366 17.2536C11.0727 17.2586 11.0908 17.285 11.0941 17.2999C11.099 17.3246 11.0891 17.361 11.0432 17.3874C9.93019 17.9405 5.63419 20.3462 6.17427 25.4184C6.19725 25.6396 6.02325 25.8279 5.80492 25.7965C4.74775 25.6446 2.02766 25.0568 1.18389 23.2257C0.716046 22.2565 0.716046 21.1338 1.18389 20.1646C1.73546 18.984 3.06513 18.1717 5.08919 17.7721C6.04623 17.5393 8.63006 17.2091 11.0366 17.2536L10.5837 17.2496ZM20.9062 0.333374C25.1891 0.333374 28.6233 3.7842 28.6233 8.0936C28.6233 12.4014 25.1891 15.8555 20.9062 15.8555C16.6234 15.8555 13.1892 12.4014 13.1892 8.0936C13.1892 3.7842 16.6234 0.333374 20.9062 0.333374ZM31.3826 1.62752C35.5193 1.62752 38.768 5.5423 37.6616 9.90289C36.9147 12.8386 34.211 14.7885 31.1987 14.7093C30.8967 14.701 30.5995 14.673 30.3123 14.6234C30.1038 14.5871 29.9987 14.351 30.1169 14.176C31.266 12.4753 31.921 10.4296 31.921 8.23362C31.921 5.94187 31.2053 3.80533 29.9626 2.0535C29.9232 1.99902 29.8937 1.91481 29.9331 1.85207C29.9659 1.80088 30.0266 1.77446 30.0841 1.76126C30.5027 1.6754 30.9328 1.62752 31.3826 1.62752ZM10.6155 1.62735C11.0653 1.62735 11.4954 1.67523 11.9157 1.76109C11.9715 1.7743 12.0339 1.80237 12.0667 1.8519C12.1044 1.91464 12.0765 1.99885 12.0371 2.05334C10.7945 3.80517 10.0787 5.94171 10.0787 8.23345C10.0787 10.4294 10.7337 12.4752 11.8828 14.1758C12.001 14.3508 11.896 14.5869 11.6875 14.6233C11.3986 14.6744 11.1031 14.7009 10.801 14.7091C7.78876 14.7884 5.08509 12.8384 4.33817 9.90273C3.23011 5.54214 6.47878 1.62735 10.6155 1.62735Z" fill="#22AA99"/>
</svg>
